HIERARCHY
ROOT Bip001_Pelvis
{
  OFFSET -1.80259 95.4564 -9.99843
  CHANNELS 6 Xposition Yposition Zposition Zrotation Xrotation Yrotation
  JOINT Bip001_Spine
  {
    OFFSET 1.44608e-005 10.4157 -0.0118244
    CHANNELS 3 Zrotation Xrotation Yrotation
    JOINT Bip001_L_Thigh
    {
      OFFSET 11.2582 -10.4157 0.0118432
      CHANNELS 3 Zrotation Xrotation Yrotation
      JOINT Bip001_L_Calf
      {
        OFFSET -0.720717 -44.8687 0.366937
        CHANNELS 3 Zrotation Xrotation Yrotation
        JOINT Bip001_L_Foot
        {
          OFFSET -0.664439 -41.3745 -3.62995
          CHANNELS 3 Zrotation Xrotation Yrotation
          JOINT Bip001_L_Toe0
          {
            OFFSET 0.0541047 -10.4146 13.4033
            CHANNELS 3 Zrotation Xrotation Yrotation
            End Site
            {
              OFFSET -1.04503e-005 0 7.70137
            }
          }
        }
      }
    }
    JOINT Bip001_R_Thigh
    {
      OFFSET -11.2582 -10.4156 0.0118122
      CHANNELS 3 Zrotation Xrotation Yrotation
      JOINT Bip001_R_Calf
      {
        OFFSET 0.72059 -44.8687 0.36676
        CHANNELS 3 Zrotation Xrotation Yrotation
        JOINT Bip001_R_Foot
        {
          OFFSET 0.664321 -41.3745 -3.62979
          CHANNELS 3 Zrotation Xrotation Yrotation
          JOINT Bip001_R_Toe0
          {
            OFFSET -0.05417 -10.4146 13.4033
            CHANNELS 3 Zrotation Xrotation Yrotation
            End Site
            {
              OFFSET -1.04873e-005 0 7.70137
            }
          }
        }
      }
    }
    JOINT Bip001_Spine1
    {
      OFFSET 1.90638e-005 14.8539 1.10727
      CHANNELS 3 Zrotation Xrotation Yrotation
      JOINT Bip001_Spine2
      {
        OFFSET 2.28934e-005 14.7848 -1.7233
        CHANNELS 3 Zrotation Xrotation Yrotation
        JOINT Bip001_Neck
        {
          OFFSET 2.24514e-005 15.6905 -0.498826
          CHANNELS 3 Zrotation Xrotation Yrotation
          JOINT Bip001_L_Clavicle
          {
            OFFSET 6.17691 -0.000591152 0.00852867
            CHANNELS 3 Zrotation Xrotation Yrotation
            JOINT Bip001_L_UpperArm
            {
              OFFSET 11.773 -0.0611878 0.00197697
              CHANNELS 3 Zrotation Xrotation Yrotation
              JOINT Bip001_L_Forearm
              {
                OFFSET 26.4514 0.0817568 -2.19579
                CHANNELS 3 Zrotation Xrotation Yrotation
                JOINT Bip001_L_Hand
                {
                  OFFSET 32.8677 0.156744 1.67112
                  CHANNELS 3 Zrotation Xrotation Yrotation
                  JOINT Bip001_L_Finger0
                  {
                    OFFSET 6.16267 -2.25226 6.01674
                    CHANNELS 3 Zrotation Xrotation Yrotation
                    End Site
                    {
                      OFFSET 4.30498 -1.46663 0.618148
                    }
                  }
                  JOINT Bip001_L_Finger1
                  {
                    OFFSET 11.2957 -0.718374 -0.201963
                    CHANNELS 3 Zrotation Xrotation Yrotation
                    End Site
                    {
                      OFFSET 6.31952 -0.405163 -0.0802303
                    }
                  }
                }
              }
            }
          }
          JOINT Bip001_R_Clavicle
          {
            OFFSET -6.17691 -0.000574027 0.00851165
            CHANNELS 3 Zrotation Xrotation Yrotation
            JOINT Bip001_R_UpperArm
            {
              OFFSET -11.773 -0.0611516 0.00194365
              CHANNELS 3 Zrotation Xrotation Yrotation
              JOINT Bip001_R_Forearm
              {
                OFFSET -26.4514 0.0822336 -2.19736
                CHANNELS 3 Zrotation Xrotation Yrotation
                JOINT Bip001_R_Hand
                {
                  OFFSET -32.8677 0.156816 1.67144
                  CHANNELS 3 Zrotation Xrotation Yrotation
                  JOINT Bip001_R_Finger0
                  {
                    OFFSET -6.16269 -2.25224 6.01673
                    CHANNELS 3 Zrotation Xrotation Yrotation
                    End Site
                    {
                      OFFSET -4.30499 -1.46661 0.618137
                    }
                  }
                  JOINT Bip001_R_Finger1
                  {
                    OFFSET -11.2957 -0.718343 -0.201995
                    CHANNELS 3 Zrotation Xrotation Yrotation
                    End Site
                    {
                      OFFSET -6.31952 -0.405145 -0.0802479
                    }
                  }
                }
              }
            }
          }
          JOINT Bip001_Head
          {
            OFFSET 1.11782e-005 11.4912 2.09908
            CHANNELS 3 Zrotation Xrotation Yrotation
            End Site
            {
              OFFSET 2.95144e-005 21.2823 -2.83069e-005
            }
          }
        }
      }
    }
  }
}
MOTION
Frames:	11
Frame Time:	0.0333333
-5.847 94.5526 0.409975 -2.01237 -0.312597 -51.8637 -2.27685 2.05664 -3.78111 2.25284 -6.93534 10.2171 0.264731 35.3674 2.11861 -4.63227 -0.248966 33.8743 -1.06927e-007 -1.98004e-009 -1.06497e-007 11.0534 -11.6432 14.6266 0.0258332 23.4619 1.98615 -0.128236 -3.44187 2.65609 -5.33732e-010 5.33453e-008 1.14615e-009 -1.01784 4.15628 -6.64143 -1.00663 4.14395 -6.65143 15.4391 -1.22227 -45.7475 -31.2753 -22.8657 31.223 -52.0551 45.7847 0.0226503 -2.83352 0.849478 -29.788 14.2217 9.20073 3.12106 7.95139e-016 3.18055e-015 -6.75868e-015 1.39149e-015 3.18056e-015 -5.56597e-015 2.36939 4.50681 42.9774 34.2363 55.6997 33.6472 1.81266 0.353316 18.4717 0.471491 -3.68877 -2.27422 -7.95139e-016 1.59028e-015 -1.59028e-015 2.38542e-015 1.59028e-015 -2.38542e-015 1.45358 -26.1852 -15.4384 
-6.21113 94.3693 0.905707 -2.37196 -0.357058 -55.8883 -2.1787 2.03995 -3.80835 2.80578 -9.29454 9.7096 0.368011 41.7355 1.97729 -6.67816 2.53823 31.9541 -1.06927e-007 -1.98004e-009 -1.06497e-007 10.6087 -11.4735 14.2605 0.0224014 24.3436 2.08175 -0.643407 -3.12569 7.17825 -5.33732e-010 5.33454e-008 1.14615e-009 -1.01666 4.12087 -6.70516 -1.00521 4.10832 -6.71504 15.6578 -0.967179 -45.8071 -31.198 -23.1135 31.1034 -52.1099 46.9974 0.112376 -2.69349 0.766125 -28.1667 14.2997 7.53691 3.06665 2.98177e-015 0 5.96354e-016 2.68359e-015 0 -4.96962e-016 2.40455 4.15758 42.9801 34.9808 54.6907 33.0517 1.81328 0.35358 18.4789 1.48489 -2.87559 -2.16733 -7.95139e-016 -3.18055e-015 7.95139e-016 -2.38542e-015 -3.18056e-015 -0 2.02907 -24.6603 -12.4899 
-6.52845 94.1584 1.50722 -2.78648 -0.39698 -59.9993 -2.02826 2.05283 -3.8212 3.21288 -11.3282 9.13592 0.486231 47.3198 1.77432 -7.64809 4.24961 26.9506 -1.06927e-007 -1.98004e-009 -1.06497e-007 9.99199 -11.4658 14.2927 0.0156893 25.3732 2.14816 -1.00709 -3.12862 12.2312 -5.33733e-010 5.33453e-008 1.14614e-009 -0.965029 4.14615 -6.72867 -0.953567 4.1338 -6.73842 15.3918 -0.55852 -45.8658 -30.8367 -23.2844 31.0304 -52.019 47.4099 0.207459 -2.59877 0.712713 -27.0849 14.5204 5.48805 2.6474 -2.60905e-015 -3.18055e-015 2.23633e-016 -1.63997e-015 -3.18056e-015 -2.50966e-015 2.83548 3.99641 42.9777 35.494 53.3519 33.021 1.74032 0.327171 17.7059 2.67678 -1.36532 -1.87737 3.18055e-015 -3.18055e-015 -0 1.19271e-015 -3.18056e-015 7.95139e-016 2.71952 -24.5885 -9.75472 
-6.85473 94.0124 2.17613 -3.23244 -0.393432 -64.1885 -1.93545 2.09707 -3.80497 3.50232 -12.7189 8.30634 0.589039 51.2027 1.58185 -7.21338 3.97646 20.862 -1.06927e-007 -1.98004e-009 -1.06497e-007 9.6029 -11.3898 15.2445 0.00567161 26.2106 2.17156 -1.15624 -3.12883 16.3146 -5.33731e-010 5.33453e-008 1.14615e-009 -0.834335 4.23239 -6.72502 -0.82259 4.21974 -6.73496 15.3394 -0.617665 -45.5863 -31.1525 -23.1993 30.7004 -51.9443 48.1839 0.368229 -2.5133 0.666551 -26.1181 15.2122 3.37103 2.28724 3.926e-015 1.27222e-014 -3.95084e-015 3.42904e-015 1.59028e-014 -4.84538e-015 2.54979 3.80521 42.851 35.7925 53.5128 32.6552 1.77853 0.340852 18.11 2.42472 -1.89599 -2.50066 1.98785e-015 0 7.95139e-016 3.97569e-016 3.18056e-015 7.95139e-016 2.85071 -24.515 -7.16253 
-7.11772 94.0243 2.823 -3.52953 -0.0411415 -68.0178 -1.89223 2.11801 -3.85529 3.87524 -13.9765 6.87827 0.649911 53.0644 1.50335 -6.80107 2.98707 14.951 -1.06927e-007 -1.98004e-009 -1.06497e-007 9.7357 -11.2036 17.1889 -0.00432513 26.3326 2.17552 -1.0907 -2.63131 18.2015 -5.33731e-010 5.33453e-008 1.14615e-009 -0.500629 4.26838 -6.88336 -0.487738 4.25347 -6.89407 15.2012 -0.469223 -45.0657 -31.4168 -23.093 30.0853 -51.9401 49.1178 0.375468 -2.41154 0.613906 -24.978 15.7643 1.37842 1.94382 -2.08724e-015 6.36111e-015 -1.39149e-015 -1.19271e-015 6.36111e-015 -8.94531e-016 2.64344 3.62426 42.3237 34.8294 54.1197 33.15 1.83439 0.361415 18.7032 2.46763 -3.65163 -2.55951 4.37326e-015 6.36111e-015 1.59028e-015 1.98785e-015 9.54167e-015 7.95139e-016 3.04735 -23.995 -4.81665 
-7.49633 94.072 3.5969 -4.24353 0.582339 -72.2019 -1.50825 2.25687 -3.878 4.58988 -14.3049 6.29588 0.65133 53.1117 1.51231 -5.26528 1.05315 12.4381 -1.06927e-007 -1.98004e-009 -1.06497e-007 9.83496 -10.4588 19.1355 0.0109469 25.8915 2.16471 -1.08263 -1.82775 18.9213 -5.33733e-010 5.33454e-008 1.14614e-009 -0.090353 4.51656 -6.86824 -0.0789623 4.50248 -6.8781 14.9579 -0.379217 -44.1148 -31.7229 -22.6262 29.1669 -52.0646 50.5272 0.160689 -2.29115 0.554925 -23.6436 16.458 -0.684651 1.64786 -3.8763e-015 3.18055e-015 2.38542e-015 1.98785e-016 3.18056e-015 9.93923e-016 2.953 3.64196 41.2159 33.9936 54.2193 33.6312 1.85596 0.364571 18.9469 2.79904 -5.12555 -2.76124 1.98785e-015 -6.36111e-015 -2.78298e-015 -3.97569e-016 -6.36111e-015 -0 3.4562 -23.5084 -2.80084 
-7.58214 94.128 4.54615 -4.16516 1.0618 -77.0468 -1.02375 2.27738 -3.85056 4.24367 -14.9847 4.87346 0.613682 51.8239 1.6409 -3.28581 -3.14565 14.0929 -1.06927e-007 -1.98004e-009 -1.06497e-007 9.33002 -10.9072 20.5109 -0.00237525 26.2253 2.16621 -0.957687 -1.27659 20.0731 -5.33733e-010 5.33453e-008 1.14614e-009 0.068787 4.52436 -6.61929 0.0765207 4.51399 -6.62664 14.7153 0.0509098 -42.7678 -31.9974 -22.1759 27.7617 -52.2615 51.4804 0.040513 -2.19381 0.509747 -22.5759 16.6613 -1.87048 1.54943 2.5842e-015 0 1.19271e-015 2.18663e-015 -3.18056e-015 1.59028e-015 3.68371 3.55047 39.77 33.9359 53.3689 33.5664 1.8475 0.363139 18.8329 2.80142 -5.69101 -2.86855 -3.97569e-016 -6.36111e-015 3.97569e-016 -4.41391e-032 -6.36111e-015 -3.97569e-016 3.6075 -22.6633 -1.03374 
-7.97334 94.3224 5.48628 -4.4895 1.43241 -81.9916 -0.738751 2.39071 -3.69909 3.66383 -14.3379 2.32011 0.5164 48.2946 1.86914 -1.87083 -7.03968 15.3733 -1.06927e-007 -1.98003e-009 -1.06497e-007 8.50089 -10.8095 19.9371 -0.000518285 26.219 2.16158 -1.11186 -0.66222 22.6256 -5.33732e-010 5.33454e-008 1.14614e-009 0.31619 4.72793 -6.22759 0.321734 4.71942 -6.23399 14.3656 0.555018 -41.2177 -32.1613 -21.5676 26.1557 -52.4827 52.8225 -0.15478 -2.11912 0.476574 -21.7623 16.4259 -3.04764 1.65754 -2.18663e-015 0 7.95139e-016 3.97569e-016 0 3.97569e-016 4.43697 3.3266 38.1402 35.2722 51.367 32.4194 1.84003 0.35806 18.7463 3.14742 -5.82371 -3.20652 -1.98785e-015 3.18055e-015 2.98177e-015 -1.19271e-015 0 1.19271e-015 3.02234 -22.2108 0.716885 
-8.45874 94.6039 6.39891 -4.78497 1.69059 -87.2297 -0.611483 2.49274 -3.46821 3.33569 -12.8911 0.336404 0.386193 42.4852 2.09723 -1.56771 -7.47966 10.1868 -1.06927e-007 -1.98004e-009 -1.06497e-007 7.4467 -10.7118 18.4879 0.00213476 26.1846 2.15882 -1.4785 -0.094356 25.6996 -5.33731e-010 5.33453e-008 1.14615e-009 0.518898 4.91487 -5.71318 0.522795 4.90735 -5.71956 13.9535 1.43245 -39.512 -32.1976 -21.1272 24.2563 -52.8896 53.2821 -0.0984631 -2.08351 0.464445 -21.3879 15.6347 -3.33466 1.69193 -3.57812e-015 -6.36111e-015 -0 -3.57812e-015 -3.18056e-015 -1.59028e-015 5.35322 2.74672 36.5159 37.0483 49.1514 30.9487 1.80461 0.332205 18.3321 2.54447 -3.49159 -3.89257 1.49088e-016 -3.18055e-015 -9.44227e-016 9.93923e-017 0 -2.26118e-015 2.72673 -22.5438 2.64451 
-9.01037 94.8664 7.28166 -4.95193 1.93642 -92.5289 -0.550785 2.56284 -3.21888 3.18449 -11.3832 -1.56975 0.278921 36.0782 2.26669 -1.63035 -5.75802 5.87332 -1.06927e-007 -1.98004e-009 -1.06497e-007 6.4307 -10.6297 16.9034 0.00340763 26.1365 2.16115 -1.86073 0.250397 28.3736 -5.33733e-010 5.33453e-008 1.14615e-009 0.650713 5.04212 -5.17194 0.653314 5.03529 -5.17842 13.637 2.41169 -37.6976 -32.3364 -20.7791 22.1969 -53.3603 52.4405 0.270241 -2.1077 0.471583 -21.6387 14.7224 -2.63767 1.75677 1.98785e-015 6.36111e-015 -7.95139e-016 2.5842e-015 6.36111e-015 7.95139e-016 6.19099 1.94966 34.8498 38.5466 47.6554 29.5354 1.81641 0.349169 18.4958 2.36436 -4.34238 -3.9796 -3.57812e-015 9.54166e-015 1.19271e-015 -1.59028e-015 1.27222e-014 -1.49088e-015 2.97342 -22.1539 4.4575 
-9.62698 95.1147 8.08161 -4.99988 2.37904 -97.6665 -0.447565 2.62811 -2.98266 3.05835 -10.2276 -4.19941 0.212655 30.5277 2.40932 -1.27744 -5.70408 4.13885 -1.06927e-007 -1.98004e-009 -1.06497e-007 5.75496 -10.2666 15.5701 0.0122999 25.8364 2.16599 -2.25044 0.59211 29.6806 -5.33735e-010 5.33453e-008 1.14616e-009 0.781376 5.16197 -4.65833 0.782993 5.15606 -4.66468 13.4104 3.38315 -35.8152 -32.3899 -20.3628 20.1211 -53.8635 51.197 0.901448 -2.18081 0.503832 -22.4339 14.2478 -1.78065 1.9251 -2.78299e-015 3.18055e-015 -7.95139e-016 -1.39149e-015 1.59028e-015 -3.18055e-015 6.97315 1.11355 33.1823 39.5524 46.7485 28.8038 1.78354 0.342716 18.1639 2.55993 -5.32257 -3.68687 -1.39149e-015 9.54166e-015 4.96962e-015 1.98785e-016 0 1.59028e-015 3.71858 -21.1835 6.03809 
